<svg width="326" height="89" viewBox="0 0 326 89" fill="none" xmlns="http://www.w3.org/2000/svg">
<path d="M42.688 15.216C42.304 15.888 41.888 16.384 41.44 16.704C41.024 16.992 40.496 17.136 39.856 17.136C39.184 17.136 38.448 16.896 37.648 16.416C36.88 15.904 35.952 15.344 34.864 14.736C33.776 14.128 32.496 13.584 31.024 13.104C29.584 12.592 27.872 12.336 25.888 12.336C24.096 12.336 22.528 12.56 21.184 13.008C19.84 13.424 18.704 14.016 17.776 14.784C16.88 15.552 16.208 16.48 15.76 17.568C15.312 18.624 15.088 19.792 15.088 21.072C15.088 22.704 15.536 24.064 16.432 25.152C17.36 26.24 18.576 27.168 20.08 27.936C21.584 28.704 23.296 29.392 25.216 30C27.136 30.608 29.104 31.264 31.12 31.968C33.136 32.64 35.104 33.44 37.024 34.368C38.944 35.264 40.656 36.416 42.16 37.824C43.664 39.2 44.864 40.896 45.76 42.912C46.688 44.928 47.152 47.376 47.152 50.256C47.152 53.392 46.608 56.336 45.52 59.088C44.464 61.808 42.896 64.192 40.816 66.24C38.768 68.256 36.256 69.856 33.28 71.04C30.304 72.192 26.896 72.768 23.056 72.768C20.848 72.768 18.672 72.544 16.528 72.096C14.384 71.68 12.32 71.072 10.336 70.272C8.384 69.472 6.544 68.512 4.816 67.392C3.088 66.272 1.552 65.024 0.208 63.648L4 57.456C4.32 57.008 4.736 56.64 5.248 56.352C5.76 56.032 6.304 55.872 6.88 55.872C7.68 55.872 8.544 56.208 9.472 56.88C10.4 57.52 11.504 58.24 12.784 59.04C14.064 59.84 15.552 60.576 17.248 61.248C18.976 61.888 21.04 62.208 23.44 62.208C27.12 62.208 29.968 61.344 31.984 59.616C34 57.856 35.008 55.344 35.008 52.08C35.008 50.256 34.544 48.768 33.616 47.616C32.72 46.464 31.52 45.504 30.016 44.736C28.512 43.936 26.8 43.264 24.88 42.72C22.96 42.176 21.008 41.584 19.024 40.944C17.04 40.304 15.088 39.536 13.168 38.64C11.248 37.744 9.536 36.576 8.032 35.136C6.528 33.696 5.312 31.904 4.384 29.76C3.488 27.584 3.04 24.912 3.04 21.744C3.04 19.216 3.536 16.752 4.528 14.352C5.552 11.952 7.024 9.824 8.944 7.96799C10.864 6.112 13.232 4.624 16.048 3.504C18.864 2.384 22.096 1.824 25.744 1.824C29.84 1.824 33.616 2.464 37.072 3.744C40.528 5.024 43.472 6.816 45.904 9.12L42.688 15.216ZM67.462 59.232C68.806 60.864 70.262 62.016 71.83 62.688C73.43 63.36 75.158 63.696 77.014 63.696C78.806 63.696 80.422 63.36 81.862 62.688C83.302 62.016 84.518 60.992 85.51 59.616C86.534 58.24 87.318 56.512 87.862 54.432C88.406 52.32 88.678 49.84 88.678 46.992C88.678 44.112 88.438 41.68 87.958 39.696C87.51 37.68 86.854 36.048 85.99 34.8C85.126 33.552 84.07 32.64 82.822 32.064C81.606 31.488 80.214 31.2 78.646 31.2C76.182 31.2 74.086 31.728 72.358 32.784C70.63 33.808 68.998 35.264 67.462 37.152V59.232ZM66.838 29.472C68.854 27.2 71.142 25.36 73.702 23.952C76.262 22.544 79.27 21.84 82.726 21.84C85.414 21.84 87.862 22.4 90.07 23.52C92.31 24.64 94.23 26.272 95.83 28.416C97.462 30.528 98.71 33.152 99.574 36.288C100.47 39.392 100.918 42.96 100.918 46.992C100.918 50.672 100.422 54.08 99.43 57.216C98.438 60.352 97.014 63.072 95.158 65.376C93.334 67.68 91.11 69.488 88.486 70.8C85.894 72.08 82.982 72.72 79.75 72.72C76.998 72.72 74.646 72.304 72.694 71.472C70.742 70.608 68.998 69.424 67.462 67.92V88.08H55.606V22.752H62.854C64.39 22.752 65.398 23.472 65.878 24.912L66.838 29.472ZM131.961 21.984C135.609 21.984 138.921 22.576 141.897 23.76C144.905 24.944 147.465 26.624 149.577 28.8C151.72 30.976 153.368 33.632 154.521 36.768C155.673 39.904 156.249 43.408 156.249 47.28C156.249 51.184 155.673 54.704 154.521 57.84C153.368 60.976 151.72 63.648 149.577 65.856C147.465 68.064 144.905 69.76 141.897 70.944C138.921 72.128 135.609 72.72 131.961 72.72C128.281 72.72 124.937 72.128 121.929 70.944C118.921 69.76 116.345 68.064 114.201 65.856C112.089 63.648 110.441 60.976 109.257 57.84C108.105 54.704 107.529 51.184 107.529 47.28C107.529 43.408 108.105 39.904 109.257 36.768C110.441 33.632 112.089 30.976 114.201 28.8C116.345 26.624 118.921 24.944 121.929 23.76C124.937 22.576 128.281 21.984 131.961 21.984ZM131.961 63.6C136.057 63.6 139.081 62.224 141.033 59.472C143.017 56.72 144.009 52.688 144.009 47.376C144.009 42.064 143.017 38.016 141.033 35.232C139.081 32.448 136.057 31.056 131.961 31.056C127.801 31.056 124.713 32.464 122.697 35.28C120.713 38.064 119.721 42.096 119.721 47.376C119.721 52.656 120.713 56.688 122.697 59.472C124.713 62.224 127.801 63.6 131.961 63.6ZM180.772 72.768C176.484 72.768 173.188 71.568 170.884 69.168C168.612 66.736 167.476 63.392 167.476 59.136V31.632H162.436C161.796 31.632 161.252 31.424 160.804 31.008C160.356 30.592 160.132 29.968 160.132 29.136V24.432L168.052 23.136L170.548 9.696C170.708 9.056 171.012 8.56 171.46 8.20799C171.908 7.856 172.484 7.68 173.188 7.68H179.332V23.184H199.828L202.372 9.696C202.532 9.056 202.82 8.56 203.236 8.20799C203.684 7.856 204.276 7.68 205.012 7.68H211.108V23.184H224.26V31.632H211.108V58.32C211.108 59.856 211.492 61.056 212.26 61.92C213.028 62.784 214.068 63.216 215.38 63.216C216.084 63.216 216.692 63.136 217.204 62.976C217.716 62.784 218.148 62.592 218.5 62.4C218.884 62.208 219.22 62.032 219.508 61.872C219.796 61.68 220.084 61.584 220.372 61.584C220.724 61.584 221.012 61.68 221.236 61.872C221.46 62.032 221.7 62.288 221.956 62.64L225.508 68.4C223.78 69.84 221.796 70.928 219.556 71.664C217.316 72.4 214.996 72.768 212.596 72.768C208.308 72.768 205.012 71.568 202.708 69.168C200.404 66.736 199.252 63.392 199.252 59.136V31.632H179.332V58.32C179.332 59.856 179.7 61.056 180.436 61.92C181.204 62.784 182.244 63.216 183.556 63.216C184.292 63.216 184.9 63.136 185.38 62.976C185.892 62.784 186.324 62.592 186.676 62.4C187.06 62.208 187.396 62.032 187.684 61.872C187.972 61.68 188.26 61.584 188.548 61.584C188.9 61.584 189.188 61.68 189.412 61.872C189.636 62.032 189.876 62.288 190.132 62.64L193.684 68.4C191.956 69.84 189.972 70.928 187.732 71.664C185.492 72.4 183.172 72.768 180.772 72.768ZM263.209 41.712C263.209 40.176 262.985 38.736 262.537 37.392C262.121 36.016 261.481 34.816 260.617 33.792C259.753 32.768 258.649 31.968 257.305 31.392C255.993 30.784 254.457 30.48 252.697 30.48C249.273 30.48 246.569 31.456 244.585 33.408C242.633 35.36 241.385 38.128 240.841 41.712H263.209ZM240.601 48.864C240.793 51.392 241.241 53.584 241.945 55.44C242.649 57.264 243.577 58.784 244.729 60C245.881 61.184 247.241 62.08 248.809 62.688C250.409 63.264 252.169 63.552 254.089 63.552C256.009 63.552 257.657 63.328 259.033 62.88C260.441 62.432 261.657 61.936 262.681 61.392C263.737 60.848 264.649 60.352 265.417 59.904C266.217 59.456 266.985 59.232 267.721 59.232C268.713 59.232 269.449 59.6 269.929 60.336L273.337 64.656C272.025 66.192 270.553 67.488 268.921 68.544C267.289 69.568 265.577 70.4 263.785 71.04C262.025 71.648 260.217 72.08 258.361 72.336C256.537 72.592 254.761 72.72 253.033 72.72C249.609 72.72 246.425 72.16 243.481 71.04C240.537 69.888 237.977 68.208 235.801 66C233.625 63.76 231.913 61.008 230.665 57.744C229.417 54.448 228.793 50.64 228.793 46.32C228.793 42.96 229.337 39.808 230.425 36.864C231.513 33.888 233.065 31.312 235.081 29.136C237.129 26.928 239.609 25.184 242.521 23.904C245.465 22.624 248.777 21.984 252.457 21.984C255.561 21.984 258.425 22.48 261.049 23.472C263.673 24.464 265.929 25.92 267.817 27.84C269.705 29.728 271.177 32.064 272.233 34.848C273.321 37.6 273.865 40.752 273.865 44.304C273.865 46.096 273.673 47.312 273.289 47.952C272.905 48.56 272.169 48.864 271.081 48.864H240.601ZM313.674 35.328C312.33 33.696 310.858 32.544 309.258 31.872C307.69 31.2 305.994 30.864 304.17 30.864C302.378 30.864 300.762 31.2 299.322 31.872C297.882 32.544 296.65 33.568 295.626 34.944C294.602 36.288 293.818 38.016 293.274 40.128C292.73 42.208 292.458 44.672 292.458 47.52C292.458 50.4 292.682 52.848 293.13 54.864C293.61 56.848 294.282 58.48 295.146 59.76C296.01 61.008 297.066 61.92 298.314 62.496C299.562 63.04 300.954 63.312 302.49 63.312C304.954 63.312 307.05 62.8 308.778 61.776C310.506 60.752 312.138 59.296 313.674 57.408V35.328ZM325.53 0.671997V72H318.282C316.714 72 315.722 71.28 315.306 69.84L314.298 65.088C312.314 67.36 310.026 69.2 307.434 70.608C304.874 72.016 301.882 72.72 298.458 72.72C295.77 72.72 293.306 72.16 291.066 71.04C288.826 69.92 286.89 68.304 285.258 66.192C283.658 64.048 282.41 61.408 281.514 58.272C280.65 55.136 280.218 51.552 280.218 47.52C280.218 43.872 280.714 40.48 281.706 37.344C282.698 34.208 284.122 31.488 285.978 29.184C287.834 26.88 290.058 25.088 292.65 23.808C295.242 22.496 298.154 21.84 301.386 21.84C304.138 21.84 306.49 22.272 308.442 23.136C310.394 24 312.138 25.168 313.674 26.64V0.671997H325.53Z" fill="#FE5E41"/>
</svg>
